<?xml version="1.0" encoding="UTF-8" standalone="no"?>
<!DOCTYPE svg PUBLIC "-//W3C//DTD SVG 1.1//EN" "http://www.w3.org/Graphics/SVG/1.1/DTD/svg11.dtd">
<svg width="100%" height="100%" viewBox="0 0 3840 2160" version="1.1" xmlns="http://www.w3.org/2000/svg" xmlns:xlink="http://www.w3.org/1999/xlink" xml:space="preserve" xmlns:serif="http://www.serif.com/" style="fill-rule:evenodd;clip-rule:evenodd;stroke-linecap:round;stroke-linejoin:round;stroke-miterlimit:1.5;">
    <g transform="matrix(0.864288,0,0,0.860303,197.411,167.389)">
        <rect x="-228.408" y="-194.569" width="4442.97" height="2510.74" style="fill:url(#_Linear1);"/>
    </g>
    <g transform="matrix(1.65167,0,0,1.65167,-445.256,-1223.96)">
        <path d="M428.493,1101.85C549.911,1058.13 946.14,1226.03 1132.41,1194.04C1297.28,1165.72 1408.54,940.539 1546.09,909.921C1683.64,879.302 1931.94,1001.94 1957.72,1010.33C2093.45,1054.46 2109.97,987.151 2203.13,1022.39C2273.74,1049.1 2305.16,1127.1 2350.33,1138.32C2478.72,1170.23 2576.36,1224.16 2499.68,1322.76C2467.07,1364.7 2432.39,1378.02 2341.66,1388.19C2253.19,1398.1 2102.07,1330.74 2026.08,1341.95C1948,1353.48 1890.12,1400.41 1811.64,1409.86C1742.51,1418.18 1625.92,1348.79 1585.14,1405.13C1466.29,1569.34 1171.2,1642.18 925.358,1613.06C741.896,1591.33 689.502,1830.59 385.262,1737.44C276.37,1704.1 384.293,1590.09 403.899,1456.34C424.933,1312.84 317.049,1141.97 428.493,1101.85Z" style="fill:url(#_Linear2);"/>
        <g transform="matrix(1.04814,0.165718,-0.156167,0.987731,100.355,-380.872)">
            <path d="M1173.31,2065.01C1015.46,1996.26 1190.79,1829.2 1323.42,1867.19C1435.26,1899.22 1440.62,1780.48 1478.6,1766.77C1534.4,1746.63 1701.96,1719.69 1758.61,1701.26C1816.56,1682.41 1847.56,1625.47 1901.1,1600.67C1969.23,1569.12 2010.89,1610.66 2076.12,1604.72C2125.78,1600.2 2162.4,1565.24 2208.61,1551.46C2277.86,1530.81 2412.16,1571.31 2430.12,1649.81C2433.69,1665.39 2431.04,1683.2 2430.41,1698.95C2429.66,1717.69 2431.32,1739.73 2424.74,1757.7C2398.62,1829.13 2270.79,1819.64 2213.62,1842.91C2187.25,1853.65 2164,1876.32 2140.27,1892.02C2105.65,1914.92 2055.94,1921.49 2015.3,1924.1C1991.67,1925.62 1965.33,1925.35 1942.37,1918.5C1919.21,1911.59 1895.57,1890.1 1869.98,1894.08C1841.72,1898.48 1821.98,1923.71 1800.01,1938.9C1763.48,1964.16 1614.56,2034.29 1569.4,2038.85C1538.45,2041.97 1503.17,2041.03 1472.9,2033.05C1436.57,2023.48 1327.44,2132.14 1173.31,2065.01Z" style="fill:url(#_Linear3);"/>
        </g>
        <g transform="matrix(0.665089,0.210994,-0.222144,0.700235,-3.97989,-663.894)">
            <path d="M1300.65,1966.4C1300.36,1943.54 1330.16,1877.15 1346.13,1833.84C1360.3,1795.43 1545.12,1736.07 1583.1,1722.36C1638.9,1702.23 1701.96,1719.69 1758.61,1701.26C1816.56,1682.41 1847.56,1625.47 1901.1,1600.67C1969.23,1569.12 2010.89,1610.66 2076.12,1604.72C2125.78,1600.2 2162.4,1565.24 2208.61,1551.46C2277.86,1530.81 2544.66,1408.8 2562.62,1487.3C2566.19,1502.88 2585.62,1564.63 2584.99,1580.38C2584.25,1599.12 2577.24,1619.08 2464.06,1742.45C2411.76,1799.46 2270.79,1819.64 2213.62,1842.91C2187.25,1853.65 2164,1876.32 2140.27,1892.02C2105.65,1914.92 2055.94,1921.49 2015.3,1924.1C1991.67,1925.62 1965.33,1925.35 1942.37,1918.5C1919.21,1911.59 1895.57,1890.1 1869.98,1894.08C1841.72,1898.48 1821.98,1923.71 1800.01,1938.9C1763.48,1964.16 1719.06,1989.89 1673.9,1994.45C1642.96,1997.57 1607.67,1996.62 1577.4,1988.65C1541.08,1979.07 1301.77,2054.57 1300.65,1966.4Z" style="fill:url(#_Linear4);"/>
        </g>
    </g>
    <g transform="matrix(0.896633,0,0,0.896633,229.478,41.6941)">
        <g>
            <g transform="matrix(1,0,0,2.30208,-4.09562,-951.676)">
                <rect x="680.208" y="756.987" width="599.469" height="21.278" style="fill:rgb(146,146,146);fill-opacity:0.18;"/>
            </g>
            <g transform="matrix(1,0,0,1,-100.595,38.8156)">
                <g transform="matrix(2.74333e-17,0.448019,-4.18282,2.56124e-16,4169.51,178.834)">
                    <rect x="680.208" y="756.987" width="599.469" height="21.278" style="fill:rgb(53,83,155);"/>
                </g>
                <g transform="matrix(1,0,0,1,-6.51855,17.7197)">
                    <circle cx="965.182" cy="679.038" r="26.646" style="fill:rgb(93,117,147);"/>
                </g>
                <rect x="914.162" y="510.347" width="89.003" height="20.152" style="fill:rgb(93,117,147);"/>
                <g transform="matrix(1,0,0,1,0,35.6303)">
                    <rect x="914.162" y="510.347" width="89.003" height="20.152" style="fill:rgb(93,117,147);"/>
                </g>
            </g>
            <g transform="matrix(1,0,0,1,-209.708,38.8156)">
                <g transform="matrix(2.74333e-17,0.448019,-4.18282,2.56124e-16,4169.51,178.834)">
                    <rect x="680.208" y="756.987" width="599.469" height="21.278" style="fill:rgb(53,83,155);"/>
                </g>
                <g transform="matrix(1,0,0,1,-6.51855,17.7197)">
                    <circle cx="965.182" cy="679.038" r="26.646" style="fill:rgb(93,117,147);"/>
                </g>
                <rect x="914.162" y="510.347" width="89.003" height="20.152" style="fill:rgb(93,117,147);"/>
                <g transform="matrix(1,0,0,1,0,35.6303)">
                    <rect x="914.162" y="510.347" width="89.003" height="20.152" style="fill:rgb(93,117,147);"/>
                </g>
            </g>
            <g transform="matrix(1,0,0,1,148.152,38.8156)">
                <g transform="matrix(2.74333e-17,0.448019,-4.18282,2.56124e-16,4169.51,178.834)">
                    <rect x="680.208" y="756.987" width="599.469" height="21.278" style="fill:rgb(53,83,155);"/>
                </g>
                <g transform="matrix(1,0,0,1,-6.51855,17.7197)">
                    <circle cx="965.182" cy="679.038" r="26.646" style="fill:rgb(93,117,147);"/>
                </g>
                <rect x="914.162" y="510.347" width="89.003" height="20.152" style="fill:rgb(93,117,147);"/>
                <g transform="matrix(1,0,0,1,0,35.6303)">
                    <rect x="914.162" y="510.347" width="89.003" height="20.152" style="fill:rgb(93,117,147);"/>
                </g>
            </g>
            <g transform="matrix(2.74333e-17,0.343932,-4.18282,1.96619e-16,4173.52,350.847)">
                <rect x="680.208" y="756.987" width="599.469" height="21.278" style="fill:rgb(53,83,155);"/>
            </g>
        </g>
        <g>
            <g transform="matrix(1,0,0,1.13153,549.939,-216.977)">
                <rect x="1249.86" y="1432.36" width="244.232" height="311.568" style="fill:rgb(129,129,129);"/>
            </g>
            <g transform="matrix(1,0,0,0.946125,556.2,122.506)">
                <rect x="631.499" y="625.061" width="1464.6" height="807.302" style="fill:rgb(211,211,211);stroke:rgb(35,35,35);stroke-width:45.77px;"/>
            </g>
            <g transform="matrix(2.58938,0,0,0.299638,-3091.97,479.863)">
                <rect x="1660.67" y="838.445" width="550.185" height="469.821" style="fill:rgb(0,129,121);"/>
            </g>
            <g transform="matrix(1,0,0,1,555.915,87.7749)">
                <path d="M652.222,644.694L2075.93,1410.9L2076.86,643.318L652.222,644.694Z" style="fill:white;fill-opacity:0.25;"/>
            </g>
            <g transform="matrix(1.09847,0,0,0.81369,490.846,350.64)">
                <rect x="616.313" y="1410.9" width="1369.45" height="122.863" style="fill:rgb(158,158,158);"/>
            </g>
            <g transform="matrix(1,0,0,1,525.954,86.3404)">
                <circle cx="1395.96" cy="1462.32" r="29.961" style="fill:white;"/>
            </g>
            <g transform="matrix(0.729599,0,0,0.729599,942.365,538.955)">
                <rect x="996.973" y="1668.56" width="691.226" height="82.201" style="fill:rgb(158,158,158);"/>
            </g>
            <g transform="matrix(1,0,0,1,77.2088,-7.51987)">
                <rect x="2450.32" y="778.385" width="61.233" height="61.233" style="fill:white;"/>
            </g>
            <g transform="matrix(1,0,0,1,-15.6827,-7.51987)">
                <rect x="2450.32" y="778.385" width="61.233" height="61.233" style="fill:white;"/>
            </g>
            <g transform="matrix(1,0,0,1,-108.574,-7.51987)">
                <rect x="2450.32" y="778.385" width="61.233" height="61.233" style="fill:white;"/>
            </g>
            <g transform="matrix(1.13711,0,0,1.1003,-228.946,-86.384)">
                <rect x="1336.31" y="906.11" width="333.444" height="208.776" style="fill:rgb(171,184,202);"/>
            </g>
            <g transform="matrix(1.13711,0,0,1.1003,212.795,-86.384)">
                <rect x="1336.31" y="906.11" width="333.444" height="208.776" style="fill:rgb(171,184,202);"/>
            </g>
            <g transform="matrix(1.13711,0,0,1.1003,663.24,-86.384)">
                <rect x="1336.31" y="906.11" width="333.444" height="208.776" style="fill:rgb(171,184,202);"/>
            </g>
            <g transform="matrix(1,0,0,0.75214,0,283.706)">
                <path d="M1669.76,1203.76C1669.76,1194.37 1664.02,1186.75 1656.96,1186.75L1303.38,1186.75C1296.32,1186.75 1290.59,1194.37 1290.59,1203.76C1290.59,1213.15 1296.32,1220.77 1303.38,1220.77L1656.96,1220.77C1664.02,1220.77 1669.76,1213.15 1669.76,1203.76Z" style="fill:rgb(171,184,202);"/>
            </g>
            <g transform="matrix(1,0,0,0.75214,439.826,283.706)">
                <path d="M1669.76,1203.76C1669.76,1194.37 1664.02,1186.75 1656.96,1186.75L1303.38,1186.75C1296.32,1186.75 1290.59,1194.37 1290.59,1203.76C1290.59,1213.15 1296.32,1220.77 1303.38,1220.77L1656.96,1220.77C1664.02,1220.77 1669.76,1213.15 1669.76,1203.76Z" style="fill:rgb(171,184,202);"/>
            </g>
            <g transform="matrix(1,0,0,0.75214,886.651,283.706)">
                <path d="M1669.76,1203.76C1669.76,1194.37 1664.02,1186.75 1656.96,1186.75L1303.38,1186.75C1296.32,1186.75 1290.59,1194.37 1290.59,1203.76C1290.59,1213.15 1296.32,1220.77 1303.38,1220.77L1656.96,1220.77C1664.02,1220.77 1669.76,1213.15 1669.76,1203.76Z" style="fill:rgb(171,184,202);"/>
            </g>
            <g transform="matrix(1,0,0,0.75214,0,329.489)">
                <path d="M1669.76,1203.76C1669.76,1194.37 1664.02,1186.75 1656.96,1186.75L1303.38,1186.75C1296.32,1186.75 1290.59,1194.37 1290.59,1203.76C1290.59,1213.15 1296.32,1220.77 1303.38,1220.77L1656.96,1220.77C1664.02,1220.77 1669.76,1213.15 1669.76,1203.76Z" style="fill:rgb(171,184,202);"/>
            </g>
            <g transform="matrix(1,0,0,0.75214,439.826,329.489)">
                <path d="M1669.76,1203.76C1669.76,1194.37 1664.02,1186.75 1656.96,1186.75L1303.38,1186.75C1296.32,1186.75 1290.59,1194.37 1290.59,1203.76C1290.59,1213.15 1296.32,1220.77 1303.38,1220.77L1656.96,1220.77C1664.02,1220.77 1669.76,1213.15 1669.76,1203.76Z" style="fill:rgb(171,184,202);"/>
            </g>
            <g transform="matrix(1,0,0,0.75214,886.651,329.489)">
                <path d="M1669.76,1203.76C1669.76,1194.37 1664.02,1186.75 1656.96,1186.75L1303.38,1186.75C1296.32,1186.75 1290.59,1194.37 1290.59,1203.76C1290.59,1213.15 1296.32,1220.77 1303.38,1220.77L1656.96,1220.77C1664.02,1220.77 1669.76,1213.15 1669.76,1203.76Z" style="fill:rgb(171,184,202);"/>
            </g>
            <g transform="matrix(0.685468,0,0,0.75214,405.933,375.273)">
                <path d="M1669.76,1203.76C1669.76,1194.37 1661.39,1186.75 1651.09,1186.75L1309.26,1186.75C1298.95,1186.75 1290.59,1194.37 1290.59,1203.76C1290.59,1213.15 1298.95,1220.77 1309.26,1220.77L1651.09,1220.77C1661.39,1220.77 1669.76,1213.15 1669.76,1203.76Z" style="fill:rgb(171,184,202);"/>
            </g>
            <g transform="matrix(0.685468,0,0,0.75214,845.759,375.273)">
                <path d="M1669.76,1203.76C1669.76,1194.37 1661.39,1186.75 1651.09,1186.75L1309.26,1186.75C1298.95,1186.75 1290.59,1194.37 1290.59,1203.76C1290.59,1213.15 1298.95,1220.77 1309.26,1220.77L1651.09,1220.77C1661.39,1220.77 1669.76,1213.15 1669.76,1203.76Z" style="fill:rgb(171,184,202);"/>
            </g>
            <g transform="matrix(0.685468,0,0,0.75214,1292.58,375.273)">
                <path d="M1669.76,1203.76C1669.76,1194.37 1661.39,1186.75 1651.09,1186.75L1309.26,1186.75C1298.95,1186.75 1290.59,1194.37 1290.59,1203.76C1290.59,1213.15 1298.95,1220.77 1309.26,1220.77L1651.09,1220.77C1661.39,1220.77 1669.76,1213.15 1669.76,1203.76Z" style="fill:rgb(171,184,202);"/>
            </g>
            <g transform="matrix(0.999789,0,0,1.49064,0.538968,-698.477)">
                <rect x="1288.06" y="1372.65" width="1268.35" height="50.957" style="fill:rgb(63,116,153);"/>
            </g>
            <g transform="matrix(0.101464,0,0,0.750968,2273.58,335.679)">
                <rect x="1288.06" y="1372.65" width="1268.35" height="50.957" style="fill:white;"/>
            </g>
        </g>
        <g>
            <path d="M2805.88,1546.24L2618.36,1546.24L2635.51,1811.7L2785.79,1811.7L2805.88,1546.24Z" style="fill:rgb(144,84,56);"/>
            <g transform="matrix(0.7901,0,0,0.887959,583.339,146.296)">
                <rect x="2565.8" y="1493.6" width="261.304" height="52.639" style="fill:rgb(219,219,219);"/>
            </g>
            <g transform="matrix(0.913129,0,0,0.686459,251.597,484.809)">
                <rect x="2565.8" y="1493.6" width="261.304" height="52.639" style="fill:rgb(219,219,219);stroke:rgb(173,173,173);stroke-width:3.24px;"/>
            </g>
            <g transform="matrix(1.24253,-0.575766,0.575766,1.24253,-1610.38,1152.25)">
                <ellipse cx="2708.26" cy="1665.77" rx="24.066" ry="34.241" style="fill:rgb(219,219,219);stroke:rgb(235,235,235);stroke-opacity:0;stroke-width:1.91px;"/>
            </g>
            <g transform="matrix(0.476414,-0.201388,0.640804,1.51592,352.206,-317.672)">
                <rect x="2707.66" y="1646.01" width="14.239" height="42.052" style="fill:rgb(144,84,56);stroke:rgb(235,235,235);stroke-opacity:0;stroke-width:2.15px;"/>
            </g>
        </g>
        <g>
            <g transform="matrix(1,0,0,0.769999,0,416.694)">
                <g transform="matrix(1.41369e-17,0.230873,-1,6.12323e-17,4574.34,1547.66)">
                    <rect x="1143.7" y="1812.41" width="1508.6" height="109.631" style="fill:url(#_Linear5);"/>
                </g>
                <g transform="matrix(1.41369e-17,0.230873,-1,6.12323e-17,3054.92,1547.66)">
                    <rect x="1143.7" y="1812.41" width="1508.6" height="109.631" style="fill:url(#_Linear6);"/>
                </g>
            </g>
            <g transform="matrix(1.30697,0,0,1,-558.264,-0.701651)">
                <rect x="1143.7" y="1812.41" width="1508.6" height="109.631" style="fill:rgb(202,202,202);"/>
            </g>
        </g>
        <g transform="matrix(1,0,0,1,-233.271,166.213)">
            <rect x="2937.18" y="612.052" width="230.274" height="333.783" style="fill:url(#_Linear7);stroke:white;stroke-opacity:0.09;stroke-width:55.71px;"/>
        </g>
        <g transform="matrix(0.69713,0,0,0.479976,886.588,252.206)">
            <rect x="2937.18" y="612.052" width="230.274" height="333.783" style="fill:url(#_Linear8);stroke:white;stroke-opacity:0.09;stroke-width:93.08px;"/>
        </g>
        <g>
            <g>
                <g transform="matrix(1,0,0,1,-42.9496,8.84815)">
                    <path d="M1220.53,1697.64C1220.53,1679.38 1205.7,1664.56 1187.44,1664.56L1187.44,1629.38L1021.2,1629.38L1020.03,1664.56C1001.77,1664.56 986.942,1679.38 986.942,1697.64L986.942,1763.81C986.942,1782.07 1001.77,1796.9 1020.03,1796.9L1187.44,1796.9C1205.7,1796.9 1220.53,1782.07 1220.53,1763.81L1220.53,1697.64Z" style="fill:rgb(79,76,124);"/>
                    <clipPath id="_clip9">
                        <path d="M1220.53,1697.64C1220.53,1679.38 1205.7,1664.56 1187.44,1664.56L1187.44,1629.38L1021.2,1629.38L1020.03,1664.56C1001.77,1664.56 986.942,1679.38 986.942,1697.64L986.942,1763.81C986.942,1782.07 1001.77,1796.9 1020.03,1796.9L1187.44,1796.9C1205.7,1796.9 1220.53,1782.07 1220.53,1763.81L1220.53,1697.64Z"/>
                    </clipPath>
                    <g clip-path="url(#_clip9)">
                        <g transform="matrix(1,0,0,0.384001,402.85,1081.69)">
                            <path d="M1060.79,1390.26L731.278,1390.26L731.278,1524.34C783.373,1527.61 760.667,1582.44 758.236,1894.16L1060.79,1998.85L1060.79,1390.26Z" style="fill:rgb(17,0,85);fill-opacity:0.17;"/>
                        </g>
                    </g>
                </g>
                <g transform="matrix(1.08321,0,0,1.14951,-97.9805,-269.982)">
                    <path d="M1177.58,1776.74L1177.58,1749.64L961.935,1750.55L961.935,1776.74C961.935,1792.75 975.726,1805.75 992.713,1805.75L1146.8,1805.75C1163.79,1805.75 1177.58,1792.75 1177.58,1776.74Z" style="fill:rgb(17,0,116);fill-opacity:0.4;"/>
                </g>
            </g>
            <path d="M1091.18,1721.99C1091.18,1721.99 1081.56,1616.92 1060.79,1581.99C1040.82,1548.41 983.595,1528.39 966.508,1512.36C906.183,1455.73 834.022,1378.13 837.57,1317.46C838.97,1293.52 859.919,1228.29 859.919,1228.29C1045.94,1324.42 1079.11,1516.57 1091.18,1721.99Z" style="fill:rgb(223,223,223);"/>
            <g transform="matrix(0.927415,0,0,1.56367,85.4743,-923.417)">
                <path d="M1177.58,1616.14C1177.58,1612.07 1172.02,1608.77 1165.16,1608.77L938.125,1608.77C931.273,1608.77 925.711,1612.07 925.711,1616.14L925.711,1630.86C925.711,1634.93 931.273,1638.23 938.125,1638.23L1165.16,1638.23C1172.02,1638.23 1177.58,1634.93 1177.58,1630.86L1177.58,1616.14Z" style="fill:rgb(99,119,161);"/>
            </g>
            <path d="M1091.18,1721.99C1080.54,1529.02 1017.7,1413.48 911.057,1325.89" style="fill:none;stroke:rgb(11,1,0);stroke-width:15.5px;"/>
        </g>
    </g>
    <defs>
        <linearGradient id="_Linear1" x1="0" y1="0" x2="1" y2="0" gradientUnits="userSpaceOnUse" gradientTransform="matrix(1.13388,-2510.74,2499.17,1.13913,2047.29,2316.17)"><stop offset="0" style="stop-color:rgb(20,14,76);stop-opacity:1"/><stop offset="1" style="stop-color:rgb(22,22,94);stop-opacity:1"/></linearGradient>
        <linearGradient id="_Linear2" x1="0" y1="0" x2="1" y2="0" gradientUnits="userSpaceOnUse" gradientTransform="matrix(-216.936,-1143.42,1143.42,-216.936,1564.15,1579.71)"><stop offset="0" style="stop-color:rgb(44,17,96);stop-opacity:0.23"/><stop offset="1" style="stop-color:rgb(67,94,176);stop-opacity:1"/></linearGradient>
        <linearGradient id="_Linear3" x1="0" y1="0" x2="1" y2="0" gradientUnits="userSpaceOnUse" gradientTransform="matrix(178.992,650.024,-612.561,189.939,1788.09,1324.48)"><stop offset="0" style="stop-color:rgb(67,99,176);stop-opacity:1"/><stop offset="1" style="stop-color:rgb(44,22,122);stop-opacity:0"/></linearGradient>
        <linearGradient id="_Linear4" x1="0" y1="0" x2="1" y2="0" gradientUnits="userSpaceOnUse" gradientTransform="matrix(307.044,655.55,-690.193,291.633,1808.4,1301.92)"><stop offset="0" style="stop-color:rgb(67,78,176);stop-opacity:1"/><stop offset="1" style="stop-color:rgb(44,22,122);stop-opacity:0"/></linearGradient>
        <linearGradient id="_Linear5" x1="0" y1="0" x2="1" y2="0" gradientUnits="userSpaceOnUse" gradientTransform="matrix(868.865,2.82511e-15,1.22367e-14,154.459,1783.44,2626.93)"><stop offset="0" style="stop-color:rgb(159,159,159);stop-opacity:1"/><stop offset="1" style="stop-color:rgb(102,102,102);stop-opacity:0"/></linearGradient>
        <linearGradient id="_Linear6" x1="0" y1="0" x2="1" y2="0" gradientUnits="userSpaceOnUse" gradientTransform="matrix(868.865,2.82511e-15,1.22367e-14,154.459,1783.44,1107.51)"><stop offset="0" style="stop-color:rgb(159,159,159);stop-opacity:1"/><stop offset="1" style="stop-color:rgb(102,102,102);stop-opacity:0"/></linearGradient>
        <linearGradient id="_Linear7" x1="0" y1="0" x2="1" y2="0" gradientUnits="userSpaceOnUse" gradientTransform="matrix(1.33692e-15,192.239,-21.8336,1.17713e-14,3052.32,753.596)"><stop offset="0" style="stop-color:rgb(159,159,159);stop-opacity:0"/><stop offset="1" style="stop-color:rgb(102,102,102);stop-opacity:0"/></linearGradient>
        <linearGradient id="_Linear8" x1="0" y1="0" x2="1" y2="0" gradientUnits="userSpaceOnUse" gradientTransform="matrix(1.33692e-15,192.239,-21.8336,1.17713e-14,3052.32,753.596)"><stop offset="0" style="stop-color:rgb(159,159,159);stop-opacity:0"/><stop offset="1" style="stop-color:rgb(102,102,102);stop-opacity:0"/></linearGradient>
    </defs>
</svg>
