<svg width="37" height="37" viewBox="0 0 37 37" fill="none" xmlns="http://www.w3.org/2000/svg">
<path fill-rule="evenodd" clip-rule="evenodd" d="M2.65938 12.0488C-0.886479 15.5946 -0.886481 21.3436 2.65938 24.8894L12.0488 34.2788C15.5946 37.8247 21.3436 37.8247 24.8894 34.2788L34.2788 24.8894C37.8247 21.3436 37.8247 15.5946 34.2788 12.0488L24.8894 2.65939C21.3436 -0.886464 15.5946 -0.886466 12.0488 2.65939L2.65938 12.0488ZM18.3709 24.6132C21.8185 24.6132 24.6132 21.8185 24.6132 18.3709C24.6132 14.9234 21.8185 12.1286 18.3709 12.1286C14.9234 12.1286 12.1286 14.9234 12.1286 18.3709C12.1286 21.8185 14.9234 24.6132 18.3709 24.6132Z" fill="url(#paint0_linear)"/>
<defs>
<linearGradient id="paint0_linear" x1="-1.52588e-05" y1="18.4691" x2="36.9382" y2="18.4691" gradientUnits="userSpaceOnUse">
<stop stop-color="#87B7FF"/>
<stop offset="1" stop-color="#4095D2"/>
</linearGradient>
</defs>
</svg>
