<svg width="22" height="29" viewBox="0 0 22 29" fill="none" xmlns="http://www.w3.org/2000/svg">
<path d="M9.86952 28.4149C1.54516 16.4842 0 15.2597 0 10.875C0 4.86888 4.92485 0 11 0C17.0752 0 22 4.86888 22 10.875C22 15.2597 20.4548 16.4842 12.1305 28.4149C11.5842 29.1951 10.4157 29.195 9.86952 28.4149ZM11 15.4062C13.5313 15.4062 15.5833 13.3775 15.5833 10.875C15.5833 8.37245 13.5313 6.34375 11 6.34375C8.46868 6.34375 6.41667 8.37245 6.41667 10.875C6.41667 13.3775 8.46868 15.4062 11 15.4062Z" fill="url(#paint0_linear)"/>
<defs>
<linearGradient id="paint0_linear" x1="0" y1="14.5" x2="22" y2="14.5" gradientUnits="userSpaceOnUse">
<stop stop-color="#87B7FF"/>
<stop offset="1" stop-color="#4095D2"/>
</linearGradient>
</defs>
</svg>
